<svg width="563" height="370" viewBox="0 0 563 370" fill="none" xmlns="http://www.w3.org/2000/svg">
<path d="M48.9192 331.258C61.2662 323.45 64.4025 308.493 64.2738 294.941C64.2738 292.685 64.5706 290.315 63.4923 288.308C62.4139 286.301 59.8317 284.896 57.6848 285.795C55.9139 286.54 55.1026 288.471 54.0737 290.057C52.7019 292.181 50.7367 293.887 48.4048 294.979C46.8812 295.686 45.0113 296.097 43.5471 295.285C41.5684 294.167 41.3606 291.462 41.4299 289.235C41.5684 285.056 41.7003 280.879 41.8256 276.706C42.0284 274.463 41.8479 272.203 41.2914 270.016C40.9963 268.933 40.4373 267.935 39.6611 267.103C38.8849 266.272 37.9139 265.632 36.8294 265.237C34.6034 264.588 31.8134 265.753 31.2792 267.932C31.1684 268.859 31.1222 269.791 31.1407 270.723C31.1427 271.191 31.0008 271.649 30.733 272.038C30.4653 272.428 30.0838 272.732 29.6369 272.912C29.1506 272.955 28.661 272.878 28.2143 272.687C27.7676 272.496 27.3787 272.199 27.0844 271.822C24.8319 269.389 23.0071 266.616 21.6826 263.613C20.36 260.614 18.6729 257.778 16.6567 255.164C14.5197 252.641 11.522 250.615 8.15822 250.386C4.79445 250.156 1.16355 252.03 0.243464 255.164C-0.676627 258.299 1.16355 261.558 3.2115 264.157C6.24237 268.033 9.83798 271.465 13.8865 274.345C14.6748 274.784 15.2983 275.453 15.6673 276.257C16.1323 277.767 14.6087 279.21 13.0555 279.669C11.2845 280.185 9.38501 279.965 7.55472 280.127C5.72443 280.29 3.70616 281.016 2.97405 282.65C1.9847 284.925 3.90403 287.372 5.83325 288.987C9.72462 292.237 14.1611 294.822 18.952 296.632C20.7186 297.143 22.3746 297.959 23.8393 299.041C25.2046 300.226 25.9961 302.261 25.1156 303.819C24.2351 305.377 22.0585 305.836 20.248 305.473C18.5022 304.97 16.8043 304.325 15.1727 303.542C11.9672 302.309 7.79216 302.424 5.65517 305.043C4.99529 305.937 4.56199 306.968 4.39016 308.054C4.21832 309.14 4.31274 310.249 4.66583 311.293C5.40478 313.369 6.56896 315.28 8.08896 316.912C13.0779 322.911 19.6213 327.527 27.0547 330.292C34.4847 332.949 41.42 333.781 48.9291 331.353" fill="#EE4248"/>
<path d="M3.70616 252.211L3.9337 252.431L4.61635 253.033C5.21985 253.568 6.10037 254.352 7.21833 255.394C10.3732 258.329 13.2966 261.489 15.9641 264.846C17.6559 266.958 19.4169 269.357 21.2571 271.956C23.0973 274.556 25.0265 277.365 26.9558 280.376C28.9904 283.511 30.8434 286.752 32.506 290.086C33.3766 291.816 34.1384 293.631 34.9101 295.476C35.6818 297.321 36.4732 299.194 37.2647 301.096C40.2979 308.197 42.9106 315.459 45.0904 322.847C46.8446 328.889 48.0007 335.078 48.5432 341.331C48.898 345.546 48.8649 349.784 48.4443 353.994C48.286 355.475 48.1376 356.632 48.009 357.415C47.9496 357.788 47.9101 358.084 47.8705 358.304C47.8638 358.406 47.8638 358.508 47.8705 358.61C47.9038 358.513 47.9303 358.414 47.9496 358.314C47.9496 358.094 48.0486 357.798 48.1178 357.425C48.2761 356.651 48.4542 355.514 48.6422 354.013C49.1272 349.795 49.2066 345.543 48.8796 341.312C48.3826 335.034 47.2527 328.818 45.506 322.752C43.3415 315.34 40.7351 308.055 37.7 300.933C36.8954 299.022 36.1105 297.152 35.3454 295.323C34.5638 293.479 33.7921 291.653 32.9215 289.904C31.2425 286.561 29.3731 283.309 27.3218 280.166C25.3431 277.155 23.4238 274.364 21.5836 271.765C19.7434 269.165 17.9527 266.776 16.2313 264.664C13.5241 261.314 10.5467 258.176 7.32715 255.279C6.18941 254.256 5.27921 253.482 4.65593 252.976L3.95349 252.393C3.7952 252.269 3.71605 252.202 3.70616 252.211Z" fill="#263238"/>
<path d="M32.7731 289.885C32.8907 289.576 32.9736 289.256 33.0204 288.929C33.159 288.308 33.337 287.419 33.525 286.301C33.9109 284.074 34.3462 280.987 34.8013 277.585C35.2564 274.183 35.7313 271.105 36.1567 268.888C36.3644 267.789 36.5425 266.891 36.6711 266.27C36.7605 265.958 36.8136 265.637 36.8294 265.314C36.6796 265.618 36.5699 265.939 36.5029 266.27C36.3249 266.872 36.0973 267.761 35.85 268.86C35.3553 271.067 34.8606 274.145 34.3759 277.557C33.8911 280.968 33.525 283.96 33.2282 286.292C33.0798 287.333 32.9512 288.203 32.8622 288.929C32.7943 289.244 32.7644 289.564 32.7731 289.885Z" fill="#263238"/>
<path d="M2.68713 283.807C3.08002 283.897 3.48082 283.951 3.88424 283.969C4.65592 284.055 5.78378 284.17 7.15897 284.361C9.91924 284.705 13.7183 285.317 17.8736 286.158C22.0288 286.999 25.7883 287.945 28.4299 288.681C29.7754 289.044 30.8538 289.369 31.5958 289.589C31.9767 289.726 32.3712 289.826 32.7731 289.885C32.4118 289.71 32.0382 289.56 31.6551 289.436C30.923 289.168 29.8545 288.805 28.5189 288.404C25.8576 287.582 22.1278 286.607 17.9626 285.756C14.4064 285.018 10.8138 284.453 7.19855 284.065C5.80357 283.912 4.67572 283.845 3.90403 283.816C3.49976 283.774 3.09206 283.77 2.68713 283.807Z" fill="#263238"/>
<path d="M45.1201 322.207C45.2079 322.102 45.2811 321.986 45.3378 321.863L45.8819 320.831C46.3469 319.933 46.99 318.623 47.7617 317.008C49.3051 313.74 51.2838 309.162 53.3911 304.087C55.4984 299.012 57.4474 294.415 58.9116 291.128L60.6627 287.228L61.1376 286.167C61.2366 285.919 61.286 285.785 61.2662 285.785C61.1848 285.893 61.1151 286.008 61.0585 286.129L60.5143 287.161C60.0395 288.06 59.4063 289.369 58.6346 290.984C57.0912 294.253 55.1125 298.831 52.9953 303.905C50.8781 308.98 48.9489 313.577 47.4748 316.865C46.7624 318.47 46.1688 319.789 45.7236 320.764L45.2586 321.825C45.1956 321.946 45.149 322.074 45.1201 322.207Z" fill="#263238"/>
<path d="M5.27923 308.942C5.27923 308.942 5.40785 309.018 5.66507 309.114L6.82261 309.506L11.0966 310.939C14.6978 312.144 19.6544 313.864 25.1255 315.775C30.5966 317.687 35.573 319.359 39.2038 320.496C41.0242 321.07 42.4885 321.509 43.5174 321.796L44.6947 322.121C44.9717 322.198 45.1201 322.226 45.1201 322.207C44.9944 322.14 44.8617 322.085 44.7244 322.045L43.5669 321.643L39.3028 320.219C35.7016 319.015 30.745 317.295 25.2739 315.383C19.8028 313.472 14.8165 311.79 11.1955 310.653C9.37512 310.089 7.901 309.64 6.88197 309.353L5.69475 309.028C5.55955 308.986 5.42035 308.957 5.27923 308.942Z" fill="#263238"/>
<path d="M450.405 230.411L390.718 230.144C389.01 230.14 387.319 229.81 385.743 229.174C384.167 228.537 382.737 227.606 381.534 226.434C380.332 225.261 379.381 223.871 378.736 222.343C378.091 220.815 377.766 219.179 377.777 217.529L378.411 73.3792C378.42 71.7318 378.765 70.1022 379.426 68.5837C380.087 67.0651 381.052 65.6873 382.265 64.5291C383.478 63.3708 384.915 62.4548 386.494 61.8333C388.074 61.2119 389.764 60.8972 391.47 60.9073L451.157 61.1653C454.6 61.178 457.897 62.5092 460.324 64.8671C462.752 67.2249 464.113 70.4168 464.108 73.7424L463.474 217.901C463.469 219.552 463.127 221.186 462.467 222.709C461.807 224.232 460.842 225.615 459.628 226.777C458.414 227.939 456.974 228.858 455.391 229.482C453.809 230.106 452.114 230.422 450.405 230.411Z" fill="#455A64"/>
<path d="M451.078 66.1828H439.503C439.126 66.1877 438.755 66.2644 438.409 66.4085C438.063 66.5525 437.751 66.761 437.489 67.0221C437.227 67.2831 437.021 67.5915 436.883 67.9297C436.744 68.2678 436.676 68.629 436.683 68.9925V71.0186C436.691 71.7523 436.4 72.4594 435.872 72.9871C435.344 73.5147 434.623 73.8204 433.863 73.838L411.296 73.7328C410.917 73.7242 410.544 73.6429 410.198 73.4937C409.852 73.3444 409.54 73.1301 409.28 72.8633C409.021 72.5965 408.819 72.2825 408.686 71.9396C408.553 71.5966 408.492 71.2316 408.506 70.8657V68.8205C408.52 68.4549 408.458 68.0904 408.324 67.7481C408.191 67.4057 407.989 67.0922 407.73 66.8257C407.47 66.5591 407.159 66.3448 406.813 66.1951C406.468 66.0454 406.095 65.9632 405.716 65.9534H401.64H391.51C390.316 65.9471 389.132 66.168 388.026 66.6036C386.921 67.0392 385.915 67.6809 385.066 68.492C384.217 69.3032 383.542 70.2679 383.079 71.3311C382.616 72.3943 382.374 73.5351 382.368 74.6885L381.745 215.397C381.739 217.728 382.692 219.965 384.393 221.617C386.094 223.269 388.405 224.201 390.817 224.209L450.385 224.476C452.797 224.487 455.114 223.573 456.83 221.936C458.545 220.298 459.519 218.071 459.537 215.741L460.15 75.0326C460.159 73.8752 459.932 72.7275 459.48 71.6554C459.028 70.5833 458.362 69.608 457.519 68.7856C456.676 67.9632 455.673 67.3099 454.567 66.8632C453.462 66.4165 452.276 66.1852 451.078 66.1828Z" fill="white"/>
<path d="M450.098 161.925H391.153V165.739H450.098V161.925Z" fill="#455A64"/>
<path d="M448.001 176.921C448.001 177.054 435.417 177.169 419.904 177.169C404.391 177.169 391.796 177.054 391.796 176.921C391.796 176.787 404.381 176.672 419.904 176.672C435.427 176.672 448.001 176.787 448.001 176.921Z" fill="#455A64"/>
<path d="M448.001 86.5967C448.001 86.74 435.417 86.8452 419.904 86.8452C404.391 86.8452 391.796 86.74 391.796 86.5967C391.796 86.4533 404.381 86.3482 419.904 86.3482C435.427 86.3482 448.001 86.4342 448.001 86.5967Z" fill="#455A64"/>
<path d="M448.001 183.859C448.001 183.993 435.417 184.107 419.904 184.107C404.391 184.107 391.796 183.993 391.796 183.859C391.796 183.725 404.381 183.61 419.904 183.61C435.427 183.61 448.001 183.716 448.001 183.859Z" fill="#455A64"/>
<path d="M448.001 190.769C448.001 190.903 435.417 191.017 419.904 191.017C404.391 191.017 391.796 190.903 391.796 190.769C391.796 190.635 404.381 190.52 419.904 190.52C435.427 190.52 448.001 190.654 448.001 190.769Z" fill="#455A64"/>
<path d="M448.001 197.726C448.001 197.86 435.417 197.975 419.904 197.975C404.391 197.975 391.796 197.86 391.796 197.726C391.796 197.592 404.381 197.478 419.904 197.478C435.427 197.478 448.001 197.583 448.001 197.726Z" fill="#455A64"/>
<path d="M448.001 204.655C448.001 204.799 435.417 204.904 419.904 204.904C404.391 204.904 391.796 204.799 391.796 204.655C391.796 204.512 404.381 204.407 419.904 204.407C435.427 204.407 448.001 204.521 448.001 204.655Z" fill="#455A64"/>
<path d="M448.802 212.521C448.802 212.654 436.218 212.769 420.705 212.769C405.192 212.769 392.598 212.654 392.598 212.521C392.598 212.387 405.182 212.272 420.705 212.272C436.228 212.272 448.802 212.377 448.802 212.521Z" fill="#455A64"/>
<path d="M450.89 94.4813H391.796V149.712H450.89V94.4813Z" fill="#E0E0E0"/>
<path d="M396.377 144.981L412.731 116.558L426.097 134.726L434.219 125.073L446.309 144.981H396.377Z" fill="#EE4248"/>
<path d="M431.796 111.034C431.796 111.847 431.546 112.641 431.079 113.317C430.611 113.993 429.947 114.52 429.169 114.831C428.392 115.142 427.537 115.223 426.711 115.065C425.886 114.906 425.128 114.515 424.533 113.94C423.938 113.365 423.533 112.633 423.369 111.836C423.205 111.039 423.289 110.212 423.611 109.461C423.933 108.711 424.478 108.069 425.178 107.617C425.877 107.166 426.7 106.925 427.541 106.925C428.669 106.927 429.749 107.361 430.547 108.131C431.344 108.901 431.793 109.945 431.796 111.034Z" fill="#EE4248"/>
<path d="M446.309 145.134C446.309 145.134 446.309 145.057 446.309 144.904C446.309 144.751 446.309 144.532 446.309 144.264C446.309 143.671 446.309 142.85 446.309 141.779C446.309 139.591 446.309 136.418 446.24 132.394C446.24 124.328 446.171 112.84 446.121 99.0495L446.359 99.2789H396.436C396.367 99.3362 396.961 98.7628 396.713 99.0113V111.435C396.713 115.497 396.713 119.473 396.713 123.334C396.713 131.075 396.713 138.386 396.713 145.115L396.466 144.876L432.567 145L442.758 145.057H445.458H446.151H446.398H446.181H445.508H442.856L432.726 145.115L396.466 145.239H396.219V145C396.219 138.31 396.219 130.961 396.219 123.219C396.219 119.397 396.219 115.383 396.219 111.321V98.8966C395.962 99.1355 396.555 98.5526 396.506 98.6195H446.428H446.527V99.0209C446.468 112.879 446.428 124.414 446.398 132.518C446.398 136.513 446.398 139.667 446.339 141.846C446.339 142.897 446.339 143.71 446.339 144.283C446.339 144.541 446.339 144.742 446.339 144.904C446.34 144.982 446.33 145.059 446.309 145.134Z" fill="#455A64"/>
<path d="M140.265 12.0324V139.352C140.265 145.448 145.381 150.39 151.692 150.39H350.788C357.099 150.39 362.215 145.448 362.215 139.352V12.0324C362.215 5.93607 357.099 0.994003 350.788 0.994003H151.692C145.381 0.994003 140.265 5.93607 140.265 12.0324Z" fill="#455A64"/>
<path d="M155.442 5.70566V145.678H340.796V5.70566H155.442Z" fill="white"/>
<path d="M351.055 69.9578C352.229 69.9578 353.377 70.2941 354.353 70.9242C355.329 71.5543 356.09 72.4499 356.539 73.4977C356.989 74.5455 357.106 75.6984 356.877 76.8108C356.648 77.9231 356.083 78.9448 355.253 79.7468C354.422 80.5487 353.365 81.0949 352.213 81.3161C351.062 81.5374 349.868 81.4238 348.784 80.9898C347.699 80.5558 346.772 79.8208 346.12 78.8778C345.467 77.9348 345.119 76.8262 345.119 75.6921C345.119 74.1713 345.745 72.7127 346.858 71.6374C347.971 70.562 349.481 69.9578 351.055 69.9578Z" fill="#263238"/>
<path d="M146.657 54.3607V97.0234C146.657 97.6674 147.197 98.1894 147.864 98.1894H147.903C148.57 98.1894 149.11 97.6674 149.11 97.0234V54.3607C149.11 53.7168 148.57 53.1947 147.903 53.1947H147.864C147.197 53.1947 146.657 53.7168 146.657 54.3607Z" fill="#263238"/>
<path d="M298.936 16.2184H239.991V20.0317H298.936V16.2184Z" fill="#455A64"/>
<path d="M222.153 81.713H163.208V85.5263H222.153V81.713Z" fill="#455A64"/>
<path d="M313.292 30.4011C313.292 30.5445 296.889 30.6496 276.686 30.6496C256.484 30.6496 240.031 30.5445 240.031 30.4011C240.031 30.2578 256.434 30.1526 276.686 30.1526C296.938 30.1526 313.292 30.2673 313.292 30.4011Z" fill="#455A64"/>
<path d="M313.292 38.7253C313.292 38.8591 296.889 38.9738 276.686 38.9738C256.484 38.9738 240.031 38.8591 240.031 38.7253C240.031 38.5915 256.434 38.4768 276.686 38.4768C296.938 38.4768 313.292 38.5819 313.292 38.7253Z" fill="#455A64"/>
<path d="M313.292 47.04C313.292 47.1738 296.889 47.2885 276.686 47.2885C256.484 47.2885 240.031 47.1738 240.031 47.04C240.031 46.9062 256.434 46.7915 276.686 46.7915C296.938 46.7915 313.292 46.9062 313.292 47.04Z" fill="#455A64"/>
<path d="M313.292 55.3546C313.292 55.498 296.889 55.6031 276.686 55.6031C256.484 55.6031 240.031 55.498 240.031 55.3546C240.031 55.2113 256.434 55.1061 276.686 55.1061C296.938 55.1061 313.292 55.2208 313.292 55.3546Z" fill="#455A64"/>
<path d="M313.292 63.6597C313.292 63.7935 296.889 63.9082 276.686 63.9082C256.484 63.9082 240.031 63.7935 240.031 63.6597C240.031 63.5259 256.434 63.4112 276.686 63.4112C296.938 63.4112 313.292 63.5354 313.292 63.6597Z" fill="#455A64"/>
<path d="M297.215 71.9935C297.215 72.1273 284.403 72.242 268.603 72.242C252.803 72.242 239.991 72.1273 239.991 71.9935C239.991 71.8597 252.793 71.745 268.603 71.745C284.413 71.745 297.215 71.8597 297.215 71.9935Z" fill="#455A64"/>
<path d="M260.016 96.7081C260.016 96.8419 238.488 96.9566 211.934 96.9566C185.38 96.9566 163.851 96.8419 163.851 96.7081C163.851 96.5743 185.38 96.4596 211.934 96.4596C238.488 96.4596 260.016 96.5647 260.016 96.7081Z" fill="#455A64"/>
<path d="M260.016 103.637C260.016 103.78 238.488 103.885 211.934 103.885C185.38 103.885 163.851 103.78 163.851 103.637C163.851 103.494 185.38 103.388 211.934 103.388C238.488 103.388 260.016 103.503 260.016 103.637Z" fill="#455A64"/>
<path d="M260.016 110.575C260.016 110.709 238.488 110.824 211.934 110.824C185.38 110.824 163.851 110.709 163.851 110.575C163.851 110.442 185.38 110.327 211.934 110.327C238.488 110.327 260.016 110.432 260.016 110.575Z" fill="#455A64"/>
<path d="M260.016 117.504C260.016 117.648 238.488 117.753 211.934 117.753C185.38 117.753 163.851 117.648 163.851 117.504C163.851 117.361 185.38 117.256 211.934 117.256C238.488 117.256 260.016 117.37 260.016 117.504Z" fill="#455A64"/>
<path d="M260.016 124.443C260.016 124.576 238.488 124.691 211.934 124.691C185.38 124.691 163.851 124.576 163.851 124.443C163.851 124.309 185.38 124.194 211.934 124.194C238.488 124.194 260.016 124.309 260.016 124.443Z" fill="#455A64"/>
<path d="M222.945 14.2592H163.851V69.4895H222.945V14.2592Z" fill="#EE4248"/>
<path d="M168.432 64.7683L184.786 36.3456L198.152 54.504L206.274 44.8609L218.364 64.7683H168.432Z" fill="#E0E0E0"/>
<path d="M203.851 30.8121C203.853 31.6253 203.605 32.4207 203.138 33.0978C202.672 33.7749 202.008 34.3031 201.231 34.6156C200.454 34.9281 199.598 35.0109 198.773 34.8534C197.947 34.6959 197.188 34.3053 196.592 33.7309C195.996 33.1566 195.59 32.4243 195.425 31.6269C195.26 30.8295 195.343 30.0027 195.665 29.2512C195.987 28.4997 196.532 27.8573 197.232 27.4054C197.932 26.9534 198.755 26.7121 199.596 26.7121C200.723 26.7121 201.804 27.1438 202.601 27.9124C203.399 28.681 203.848 29.7238 203.851 30.8121Z" fill="#E0E0E0"/>
<path d="M218.364 64.9213C218.364 64.9213 218.364 64.8353 218.364 64.6919C218.364 64.5486 218.364 64.3192 218.364 64.0516C218.364 63.459 218.364 62.6276 218.364 61.5667C218.364 59.3686 218.364 56.2052 218.305 52.1817C218.305 44.1155 218.236 32.6279 218.186 18.8371L218.424 19.0665H168.501C168.432 19.1238 169.026 18.5599 168.778 18.8084V25.0492C168.778 27.1135 168.778 29.1683 168.778 31.1944V43.0929C168.778 50.8342 168.778 58.1453 168.778 64.8735L168.531 64.6346L204.632 64.7493L214.813 64.8162H217.513H218.216H218.463H218.246H217.573H214.921L204.79 64.883L168.531 64.9977H168.284V64.7588C168.284 58.0689 168.284 50.7195 168.284 42.9783C168.284 39.1108 168.284 35.1446 168.284 31.0797V18.6555C168.026 18.8944 168.62 18.3115 168.571 18.3688H218.493H218.74V18.6077C218.691 32.4559 218.651 44.0009 218.621 52.1053C218.621 56.1001 218.572 59.2539 218.562 61.4329C218.562 62.4747 218.562 63.3444 218.562 63.87C218.562 64.128 218.562 64.3287 218.562 64.4912C218.555 64.6536 218.484 64.8074 218.364 64.9213Z" fill="#455A64"/>
<path d="M315.102 89.0338H273.283V128.122H315.102V89.0338Z" fill="#EE4248"/>
<path d="M276.528 124.777L288.093 104.669L297.561 117.523L303.309 110.69L311.857 124.777H276.528Z" fill="#E0E0E0"/>
<path d="M301.588 100.751C301.588 101.318 301.414 101.872 301.088 102.344C300.762 102.815 300.298 103.183 299.756 103.4C299.213 103.617 298.617 103.673 298.041 103.563C297.465 103.452 296.936 103.179 296.521 102.778C296.106 102.377 295.823 101.866 295.709 101.31C295.594 100.754 295.653 100.177 295.878 99.6535C296.102 99.1296 296.483 98.6818 296.971 98.3668C297.459 98.0517 298.033 97.8835 298.62 97.8835C299.407 97.8835 300.162 98.1856 300.719 98.7233C301.275 99.261 301.588 99.9903 301.588 100.751Z" fill="#E0E0E0"/>
<path d="M311.857 124.882C311.857 124.882 311.857 124.825 311.857 124.729C311.857 124.634 311.857 124.462 311.857 124.271C311.857 123.85 311.857 123.315 311.857 122.512C311.857 120.964 311.857 118.689 311.857 115.822C311.857 110.088 311.808 101.984 311.768 92.2258L311.936 92.3883H276.607C276.557 92.3883 276.983 92.0251 276.805 92.2067V100.98C276.805 103.847 276.805 106.654 276.805 109.4C276.805 114.876 276.805 120.046 276.805 124.806L276.637 124.643L302.083 124.825H309.285H311.204H311.867C311.867 124.825 311.818 124.825 311.719 124.825H311.244H309.364L302.191 124.873L276.538 124.959H276.36V124.787C276.36 120.008 276.36 114.857 276.36 109.381V92.3309C276.182 92.4934 276.607 92.0825 276.567 92.1302H311.897H312.075V92.2927C312.075 102.098 312.006 110.26 311.986 115.994C311.986 118.861 311.986 121.059 311.936 122.598C311.936 123.344 311.936 123.917 311.936 124.328C311.936 124.51 311.936 124.653 311.936 124.768C311.936 124.882 311.867 124.892 311.857 124.882Z" fill="#455A64"/>
<path d="M345.208 165.49H63.7891C55.828 165.49 49.3743 171.725 49.3743 179.415V349.751C49.3743 357.441 55.828 363.675 63.7891 363.675H345.208C353.169 363.675 359.623 357.441 359.623 349.751V179.415C359.623 171.725 353.169 165.49 345.208 165.49Z" fill="#263238"/>
<path d="M36.4041 349.024H372.534V349.359C372.534 353.87 370.678 358.197 367.376 361.388C364.073 364.578 359.594 366.37 354.924 366.37H54.0144C49.3438 366.37 44.8646 364.578 41.562 361.388C38.2594 358.197 36.4041 353.87 36.4041 349.359V349.024Z" fill="#263238"/>
<path d="M350.432 173.365H57.7046V340.729H350.432V173.365Z" fill="#E0E0E0"/>
<path d="M173.913 349.024L178.088 355.437H236.776L240.654 349.024H173.913Z" fill="#455A64"/>
<path d="M336.977 184.518H67.4695V340.671H336.977V184.518Z" fill="#FAFAFA"/>
<path d="M78.9755 192.212C78.9775 192.645 78.8463 193.069 78.5985 193.43C78.3508 193.792 77.9976 194.074 77.5838 194.241C77.17 194.408 76.7142 194.452 76.274 194.369C75.8339 194.286 75.4293 194.078 75.1114 193.772C74.7936 193.467 74.5768 193.077 74.4886 192.652C74.4004 192.227 74.4447 191.787 74.6159 191.386C74.787 190.986 75.0774 190.643 75.4502 190.402C75.823 190.161 76.2614 190.033 76.7099 190.033C77.3091 190.033 77.8839 190.262 78.3085 190.67C78.7331 191.079 78.9729 191.633 78.9755 192.212Z" fill="#455A64"/>
<path d="M88.1962 192.212C88.1982 192.645 88.0667 193.07 87.8185 193.431C87.5703 193.793 87.2166 194.075 86.8022 194.241C86.3878 194.408 85.9315 194.452 85.4911 194.368C85.0507 194.284 84.6461 194.076 84.3286 193.769C84.0112 193.462 83.7952 193.071 83.7081 192.646C83.621 192.221 83.6667 191.78 83.8394 191.379C84.0121 190.979 84.304 190.637 84.6781 190.398C85.0522 190.158 85.4916 190.031 85.9405 190.033C86.5388 190.033 87.1125 190.262 87.5355 190.671C87.9586 191.08 88.1962 191.634 88.1962 192.212Z" fill="#455A64"/>
<path d="M97.4268 192.212C97.4288 192.645 97.2976 193.069 97.0498 193.43C96.8021 193.791 96.4489 194.073 96.0351 194.241C95.6213 194.408 95.1655 194.452 94.7253 194.369C94.2852 194.286 93.8806 194.078 93.5627 193.772C93.2449 193.467 93.0281 193.077 92.9399 192.652C92.8517 192.227 92.896 191.787 93.0672 191.386C93.2384 190.986 93.5287 190.643 93.9015 190.402C94.2743 190.161 94.7127 190.033 95.1612 190.033C95.4583 190.032 95.7527 190.087 96.0275 190.196C96.3023 190.305 96.5521 190.465 96.7627 190.668C96.9732 190.87 97.1402 191.111 97.2542 191.376C97.3682 191.641 97.4268 191.925 97.4268 192.212Z" fill="#455A64"/>
<path d="M336.977 201.769C336.977 201.912 276.627 202.017 202.228 202.017C127.829 202.017 67.4695 201.912 67.4695 201.769C67.4695 201.626 127.819 201.52 202.228 201.52C276.637 201.52 336.977 201.635 336.977 201.769Z" fill="#455A64"/>
<path d="M359.623 349.158H49.3743V350.114H359.623V349.158Z" fill="#455A64"/>
<path d="M148.507 277.642H89.5615V281.456H148.507V277.642Z" fill="#455A64"/>
<path d="M224.647 224.754H165.701V228.567H224.647V224.754Z" fill="#455A64"/>
<path d="M312.322 238.946C312.322 239.08 279.496 239.194 239.012 239.194C198.528 239.194 165.701 239.08 165.701 238.946C165.701 238.812 198.518 238.688 239.012 238.688C279.506 238.688 312.322 238.803 312.322 238.946Z" fill="#455A64"/>
<path d="M312.322 247.26C312.322 247.394 279.496 247.509 239.012 247.509C198.528 247.509 165.701 247.394 165.701 247.26C165.701 247.127 198.518 247.012 239.012 247.012C279.506 247.012 312.322 247.155 312.322 247.26Z" fill="#455A64"/>
<path d="M312.322 255.575C312.322 255.719 279.496 255.824 239.012 255.824C198.528 255.824 165.701 255.719 165.701 255.575C165.701 255.432 198.518 255.327 239.012 255.327C279.506 255.327 312.322 255.441 312.322 255.575Z" fill="#455A64"/>
<path d="M312.322 263.899C312.322 264.033 279.496 264.148 239.012 264.148C198.528 264.148 165.701 264.033 165.701 263.899C165.701 263.766 198.518 263.641 239.012 263.641C279.506 263.641 312.322 263.756 312.322 263.899Z" fill="#455A64"/>
<path d="M312.322 272.214C312.322 272.348 279.496 272.463 239.012 272.463C198.528 272.463 165.701 272.348 165.701 272.214C165.701 272.08 198.518 271.966 239.012 271.966C279.506 271.966 312.322 272.071 312.322 272.214Z" fill="#455A64"/>
<path d="M222.935 280.529C222.935 280.663 210.123 280.777 194.323 280.777C178.523 280.777 165.701 280.663 165.701 280.529C165.701 280.395 178.563 280.28 194.323 280.28C210.083 280.28 222.935 280.395 222.935 280.529Z" fill="#455A64"/>
<path d="M311.244 296.671C311.244 296.814 289.666 296.919 263.063 296.919C236.459 296.919 214.882 296.814 214.882 296.671C214.882 296.527 236.449 296.422 263.063 296.422C289.676 296.422 311.244 296.537 311.244 296.671Z" fill="#455A64"/>
<path d="M311.244 305.501C311.244 305.635 289.666 305.75 263.063 305.75C236.459 305.75 214.882 305.635 214.882 305.501C214.882 305.367 236.449 305.253 263.063 305.253C289.676 305.253 311.244 305.367 311.244 305.501Z" fill="#455A64"/>
<path d="M311.244 314.332C311.244 314.466 289.666 314.581 263.063 314.581C236.459 314.581 214.882 314.466 214.882 314.332C214.882 314.198 236.449 314.084 263.063 314.084C289.676 314.084 311.244 314.189 311.244 314.332Z" fill="#455A64"/>
<path d="M311.244 323.163C311.244 323.297 289.666 323.411 263.063 323.411C236.459 323.411 214.882 323.297 214.882 323.163C214.882 323.029 236.449 322.914 263.063 322.914C289.676 322.914 311.244 323.019 311.244 323.163Z" fill="#455A64"/>
<path d="M148.655 295.83C148.655 295.963 135.794 296.078 119.964 296.078C104.135 296.078 91.2731 295.963 91.2731 295.83C91.2731 295.696 104.135 295.581 119.964 295.581C135.794 295.581 148.655 295.686 148.655 295.83Z" fill="#455A64"/>
<path d="M148.655 302.758C148.655 302.902 135.794 303.007 119.964 303.007C104.135 303.007 91.2731 302.902 91.2731 302.758C91.2731 302.615 104.135 302.51 119.964 302.51C135.794 302.51 148.655 302.586 148.655 302.758Z" fill="#455A64"/>
<path d="M148.655 309.697C148.655 309.831 135.794 309.945 119.964 309.945C104.135 309.945 91.2731 309.831 91.2731 309.697C91.2731 309.563 104.135 309.448 119.964 309.448C135.794 309.448 148.655 309.563 148.655 309.697Z" fill="#455A64"/>
<path d="M148.655 316.626C148.655 316.769 135.794 316.874 119.964 316.874C104.135 316.874 91.2731 316.769 91.2731 316.626C91.2731 316.482 104.135 316.377 119.964 316.377C135.794 316.377 148.655 316.492 148.655 316.626Z" fill="#455A64"/>
<path d="M148.655 323.612C148.655 323.746 135.794 323.86 119.964 323.86C104.135 323.86 91.2731 323.746 91.2731 323.612C91.2731 323.478 104.135 323.363 119.964 323.363C135.794 323.363 148.655 323.43 148.655 323.612Z" fill="#455A64"/>
<path d="M148.655 212.31H89.5615V267.541H148.655V212.31Z" fill="#E0E0E0"/>
<path d="M94.1422 262.81L110.496 234.387L123.862 252.555L131.995 242.912L144.074 262.81H94.1422Z" fill="#EE4248"/>
<path d="M129.561 228.863C129.561 229.676 129.311 230.47 128.844 231.146C128.376 231.822 127.712 232.349 126.935 232.66C126.157 232.971 125.302 233.052 124.477 232.894C123.651 232.735 122.893 232.344 122.298 231.769C121.703 231.194 121.298 230.462 121.134 229.665C120.97 228.868 121.054 228.041 121.376 227.29C121.698 226.54 122.243 225.898 122.943 225.446C123.643 224.995 124.465 224.754 125.307 224.754C126.435 224.754 127.517 225.187 128.315 225.957C129.112 226.728 129.561 227.773 129.561 228.863Z" fill="#EE4248"/>
<path d="M144.074 262.963C144.07 262.89 144.07 262.816 144.074 262.743C144.074 262.571 144.074 262.361 144.074 262.093C144.074 261.51 144.074 260.679 144.074 259.608C144.074 257.42 144.074 254.256 144.005 250.233C144.005 242.167 143.936 230.679 143.886 216.879L144.124 217.118H94.2015C94.1323 217.175 94.7259 216.601 94.4786 216.85V229.274C94.4786 233.326 94.4786 237.302 94.4786 241.173C94.4786 248.904 94.4786 256.215 94.4786 262.944L94.2312 262.714L130.332 262.829L140.523 262.896H143.224H144.163C144.163 262.896 144.094 262.896 143.946 262.896H143.273H140.622L130.491 262.963L94.2312 263.077H93.9938V262.839C93.9938 256.149 93.9938 248.799 93.9938 241.068C93.9938 237.197 93.9938 233.221 93.9938 229.169V216.745L94.2807 216.468H144.203H144.45V216.697C144.45 230.555 144.351 242.09 144.322 250.195C144.322 254.199 144.322 257.343 144.262 259.522C144.262 260.574 144.262 261.386 144.262 261.969C144.262 262.227 144.262 262.428 144.262 262.581C144.262 262.733 144.084 262.972 144.074 262.963Z" fill="#455A64"/>
<path d="M207.482 292.456H165.662V331.544H207.482V292.456Z" fill="#E0E0E0"/>
<path d="M168.907 328.199L180.472 308.091L189.94 320.945L195.689 314.112L204.246 328.199H168.907Z" fill="#EE4248"/>
<path d="M193.967 304.173C193.967 304.74 193.793 305.294 193.467 305.766C193.141 306.237 192.677 306.605 192.135 306.822C191.593 307.039 190.996 307.096 190.42 306.985C189.844 306.874 189.315 306.601 188.9 306.2C188.485 305.799 188.203 305.288 188.088 304.732C187.974 304.176 188.032 303.6 188.257 303.076C188.482 302.552 188.862 302.104 189.35 301.789C189.838 301.474 190.412 301.306 190.999 301.306C191.786 301.306 192.541 301.608 193.098 302.145C193.654 302.683 193.967 303.412 193.967 304.173Z" fill="#EE4248"/>
<path d="M204.246 328.314C204.243 328.26 204.243 328.206 204.246 328.152C204.246 328.037 204.246 327.884 204.246 327.693C204.246 327.282 204.246 326.737 204.246 325.934C204.246 324.386 204.246 322.111 204.197 319.292C204.197 313.558 204.197 305.453 204.118 295.696L204.286 295.858H168.947C168.947 295.858 169.322 295.495 169.144 295.677V312.879C169.144 318.356 169.144 323.526 169.144 328.295L168.966 328.123L194.521 328.209L201.724 328.257H203.633H201.753H194.59L168.927 328.343H168.759V328.18C168.759 323.402 168.759 318.241 168.759 312.765C168.759 310.031 168.759 307.212 168.759 304.345V295.591C168.58 295.753 168.996 295.342 168.956 295.39H204.296H204.464V295.552C204.464 305.358 204.395 313.52 204.375 319.263C204.375 322.131 204.375 324.319 204.375 325.858C204.375 326.603 204.375 327.177 204.375 327.588C204.375 327.769 204.375 327.913 204.375 328.027C204.352 328.13 204.308 328.227 204.246 328.314Z" fill="#455A64"/>
<path d="M556.69 349.416L546.797 348.279L544.472 366.189L558.946 367.995L559.164 366.896C560.094 361.984 563.507 341.876 562.893 338.445C562.211 334.622 556.69 349.416 556.69 349.416Z" fill="#EE4248"/>
<path d="M562.033 337.164C562.211 337.164 561.528 343.911 560.509 352.178C559.49 360.445 558.531 367.135 558.352 367.116C558.174 367.097 558.867 360.426 559.876 352.102C560.885 343.777 561.855 337.145 562.033 337.164Z" fill="#263238"/>
<path d="M558.748 348.575C558.649 348.709 558.135 348.518 557.66 348.078C557.185 347.638 556.987 347.122 557.126 347.036C557.264 346.95 557.68 347.227 558.115 347.638C558.55 348.049 558.857 348.46 558.748 348.575Z" fill="#263238"/>
<path d="M559.54 347.505C559.46 347.658 558.877 347.505 558.303 347.084C557.729 346.664 557.413 346.128 557.541 346.033C557.67 345.937 558.155 346.195 558.689 346.587C559.223 346.979 559.629 347.352 559.54 347.505Z" fill="#263238"/>
<path d="M558.956 361.706C558.956 361.783 558.709 362.022 558.214 362.366C557.585 362.779 556.999 363.25 556.463 363.771C555.956 364.289 555.589 364.919 555.394 365.606C555.256 366.141 555.295 366.495 555.196 366.514C555.097 366.533 554.919 366.179 554.949 365.558C555.019 364.743 555.367 363.973 555.938 363.369C556.504 362.799 557.175 362.336 557.917 362.003C558.54 361.735 558.906 361.63 558.956 361.706Z" fill="#263238"/>
<path d="M556.898 348.307C557.056 348.241 557.373 348.594 557.492 349.12C557.61 349.645 557.492 350.075 557.314 350.075C557.135 350.075 556.977 349.693 556.868 349.225C556.76 348.757 556.73 348.374 556.898 348.307Z" fill="#263238"/>
<path d="M555.909 348.46C556.077 348.46 556.166 348.957 556.107 349.569C556.047 350.181 555.839 350.639 555.671 350.601C555.503 350.563 555.404 350.075 555.473 349.502C555.543 348.929 555.731 348.46 555.909 348.46Z" fill="#263238"/>
<path d="M550.655 367.613L495.816 362.242L382.101 364.698L412.335 341.149L488.228 337.632L554.583 346.463L550.655 367.613Z" fill="#263238"/>
<path d="M457.964 352.904C457.964 353.048 447.289 353.153 434.12 353.153C420.952 353.153 410.287 353.048 410.287 352.904C410.287 352.761 420.952 352.656 434.12 352.656C447.289 352.656 457.964 352.771 457.964 352.904Z" fill="#455A64"/>
<path d="M452.661 339.276L456.559 362.968H464.038L458.35 339.018L452.661 339.276Z" fill="black"/>
<path d="M481.609 363.283L480.501 353.726L461.911 355.638L463.346 369.629H464.503C469.668 369.381 490.711 368.024 494.025 366.667C497.765 365.109 481.609 363.283 481.609 363.283Z" fill="#EE4248"/>
<path d="M494.411 365.663C494.411 365.835 487.486 366.724 478.928 367.651C470.37 368.578 463.405 369.19 463.385 369.018C463.365 368.846 470.311 367.966 478.859 367.039C487.407 366.112 494.391 365.529 494.411 365.663Z" fill="#263238"/>
<path d="M482.143 365.204C481.975 365.137 482.054 364.612 482.391 364.067C482.727 363.522 483.192 363.216 483.321 363.322C483.449 363.427 483.251 363.885 482.945 364.382C482.638 364.879 482.321 365.271 482.143 365.204Z" fill="#263238"/>
<path d="M483.419 365.663C483.251 365.663 483.271 365.042 483.568 364.402C483.865 363.761 484.3 363.36 484.448 363.446C484.597 363.532 484.448 364.048 484.152 364.64C483.855 365.233 483.588 365.749 483.419 365.663Z" fill="#263238"/>
<path d="M468.965 368.377C468.906 368.435 468.589 368.215 468.134 367.833C467.575 367.336 466.969 366.892 466.324 366.504C465.685 366.145 464.965 365.945 464.226 365.921C463.662 365.921 463.306 366.026 463.237 365.921C463.168 365.816 463.504 365.587 464.157 365.472C465.007 365.356 465.873 365.524 466.611 365.95C467.313 366.358 467.931 366.889 468.431 367.517C468.847 368.005 469.034 368.32 468.965 368.377Z" fill="#263238"/>
<path d="M482.005 363.398C482.114 363.532 481.827 363.905 481.322 364.143C480.817 364.382 480.333 364.363 480.333 364.201C480.333 364.038 480.639 363.799 481.085 363.589C481.53 363.379 481.906 363.255 482.005 363.398Z" fill="#263238"/>
<path d="M481.609 362.5C481.609 362.672 481.164 362.863 480.541 362.939C479.917 363.016 479.403 362.939 479.393 362.767C479.383 362.595 479.868 362.404 480.461 362.328C481.055 362.251 481.569 362.337 481.609 362.5Z" fill="#263238"/>
<path d="M372.84 253.96L388.67 253.683C388.888 251.915 389.194 245.024 389.194 245.024C389.194 245.024 395.823 244.422 396.308 238.095C396.792 231.769 396.585 217.127 396.585 217.127C392.952 215.356 388.896 214.553 384.835 214.802C380.774 215.05 376.855 216.341 373.484 218.542L372.494 219.211L372.84 253.96Z" fill="#B78876"/>
<path d="M394.398 227.936C394.226 227.759 394.13 227.525 394.13 227.281C394.13 227.038 394.226 226.804 394.398 226.627C394.534 226.487 394.71 226.39 394.904 226.349C395.097 226.307 395.299 226.322 395.483 226.393C395.668 226.464 395.826 226.586 395.937 226.744C396.049 226.903 396.108 227.09 396.108 227.281C396.108 227.473 396.049 227.66 395.937 227.819C395.826 227.977 395.668 228.099 395.483 228.17C395.299 228.241 395.097 228.256 394.904 228.214C394.71 228.173 394.534 228.076 394.398 227.936Z" fill="#263238"/>
<path d="M396.07 226.579C395.961 226.684 395.348 226.168 394.448 226.111C393.547 226.053 392.855 226.464 392.766 226.35C392.677 226.235 392.835 226.101 393.132 225.91C393.536 225.665 394.011 225.551 394.487 225.585C394.962 225.614 395.414 225.792 395.773 226.092C396.07 226.331 396.139 226.531 396.07 226.579Z" fill="#263238"/>
<path d="M385.623 226.722C385.764 226.884 385.846 227.087 385.856 227.299C385.865 227.51 385.801 227.719 385.674 227.892C385.548 228.065 385.365 228.192 385.155 228.254C384.945 228.315 384.72 228.308 384.515 228.232C384.374 228.18 384.247 228.098 384.144 227.991C384.041 227.885 383.965 227.757 383.921 227.617C383.877 227.478 383.867 227.33 383.891 227.186C383.915 227.042 383.973 226.906 384.06 226.787C384.147 226.668 384.262 226.57 384.394 226.5C384.527 226.43 384.674 226.391 384.825 226.385C384.976 226.378 385.126 226.406 385.265 226.464C385.403 226.523 385.525 226.611 385.623 226.722Z" fill="#263238"/>
<path d="M386.177 226.761C386.068 226.866 385.455 226.35 384.544 226.292C383.634 226.235 382.961 226.646 382.862 226.531C382.764 226.417 382.932 226.283 383.238 226.092C383.642 225.846 384.116 225.732 384.592 225.766C385.067 225.801 385.519 225.982 385.88 226.283C386.177 226.512 386.266 226.722 386.177 226.761Z" fill="#263238"/>
<path d="M389.382 234.186C389.858 234.036 390.356 233.965 390.856 233.976C391.094 233.976 391.292 233.919 391.312 233.804C391.336 233.574 391.291 233.342 391.183 233.135L390.579 231.319C389.999 229.771 389.581 228.17 389.333 226.541C390.076 228.018 390.659 229.565 391.074 231.157C391.272 231.788 391.45 232.39 391.638 232.982C391.773 233.284 391.797 233.621 391.707 233.938C391.666 234.023 391.606 234.099 391.531 234.158C391.455 234.218 391.367 234.26 391.272 234.282C391.137 234.3 391.001 234.3 390.866 234.282C390.37 234.33 389.868 234.297 389.382 234.186Z" fill="#263238"/>
<path d="M386.385 234.98C385.474 234.378 388.888 236.461 390.738 236.48C390.4 236.921 389.919 237.239 389.372 237.383C388.824 237.527 388.242 237.488 387.72 237.273C385.801 236.461 386.385 234.98 386.385 234.98Z" fill="white"/>
<path d="M389.234 244.929C386.198 244.8 383.271 243.802 380.824 242.062C380.824 242.062 382.556 246.744 389.145 246.563L389.234 244.929Z" fill="#A36957"/>
<path d="M397.06 214.843C397.436 214.831 397.804 214.736 398.136 214.565C398.469 214.394 398.756 214.151 398.976 213.856C399.196 213.561 399.344 213.221 399.407 212.863C399.47 212.504 399.447 212.137 399.34 211.788C399.233 211.439 399.044 211.119 398.789 210.852C398.534 210.584 398.219 210.377 397.868 210.246C397.517 210.114 397.139 210.062 396.764 210.094C396.389 210.125 396.026 210.24 395.704 210.428C396.49 209.803 397.131 209.024 397.584 208.143C397.802 207.701 397.874 207.204 397.791 206.721C397.708 206.237 397.473 205.79 397.119 205.439C396.706 205.165 396.224 205.004 395.724 204.974C395.224 204.943 394.725 205.045 394.28 205.267C392.885 205.85 391.786 206.987 390.322 207.465C388.858 207.943 387.295 207.704 385.761 207.771C384.052 207.802 382.397 208.354 381.032 209.348C380.36 209.85 379.82 210.497 379.454 211.237C379.088 211.977 378.907 212.79 378.925 213.61C376.778 213.362 374.404 213.333 372.712 214.623C372.031 215.208 371.493 215.932 371.136 216.741C370.778 217.551 370.61 218.427 370.644 219.306C370.809 221.062 371.243 222.785 371.93 224.419C372.05 224.898 372.273 225.347 372.583 225.738L373.385 230.287L376.303 230.23L376.115 220.768C376.115 220.768 375.818 216.773 379.38 217.127C382.942 217.481 387.76 221.351 394.675 220.367C395.806 220.309 396.909 220.006 397.901 219.478C398.381 219.186 398.772 218.775 399.033 218.288C399.294 217.8 399.415 217.254 399.385 216.707C399.324 216.165 399.048 215.667 398.614 215.319C398.18 214.971 397.622 214.8 397.06 214.843Z" fill="#263238"/>
<path d="M373.751 224.83C373.602 224.782 368.873 224.19 369.318 229.609C369.764 235.028 375.254 232.782 375.254 232.629C375.254 232.476 373.751 224.83 373.751 224.83Z" fill="#B78876"/>
<path d="M373.394 230.841C373.394 230.841 373.296 230.908 373.137 230.994C372.915 231.107 372.657 231.135 372.415 231.071C372.037 230.877 371.719 230.59 371.493 230.239C371.268 229.889 371.142 229.486 371.129 229.073C371.073 228.612 371.127 228.145 371.287 227.707C371.325 227.533 371.406 227.371 371.523 227.234C371.64 227.098 371.79 226.991 371.96 226.923C372.07 226.886 372.19 226.888 372.298 226.929C372.407 226.969 372.497 227.045 372.554 227.143C372.643 227.286 372.613 227.391 372.643 227.401C372.672 227.41 372.761 227.305 372.692 227.086C372.654 226.951 372.566 226.836 372.445 226.761C372.365 226.71 372.276 226.676 372.183 226.66C372.089 226.643 371.993 226.645 371.901 226.665C371.664 226.727 371.448 226.848 371.274 227.015C371.1 227.183 370.975 227.392 370.911 227.621C370.709 228.105 370.637 228.631 370.703 229.15C370.714 229.631 370.872 230.098 371.157 230.493C371.443 230.888 371.842 231.192 372.306 231.367C372.46 231.399 372.619 231.396 372.771 231.36C372.924 231.323 373.066 231.254 373.187 231.157C373.394 230.966 373.414 230.851 373.394 230.841Z" fill="#A36957"/>
<path d="M359.999 348.46C362.967 352.732 380.963 378.9 402.452 359.871C429.827 335.654 451.474 314.437 451.474 314.437L459.606 362.366L485.091 361.028C485.091 361.028 475.198 289.665 468.886 283.176C461.872 275.932 455.421 276.543 400.334 318.537L359.999 348.46Z" fill="#455A64"/>
<path d="M451.157 267.187L474.961 250.405L476.128 252.211L452.483 269.194L451.157 267.187Z" fill="#263238"/>
<path d="M457.044 266.671C457.044 266.671 460.229 258.643 461.001 256.932C461.773 255.222 462.93 252.24 463.385 252.154C463.84 252.068 465.502 252.345 463.385 257.448C461.268 262.552 465.958 259.436 465.958 259.436L470.538 256.263C470.538 256.263 474.159 266.719 472.101 269.873C470.484 272.227 468.667 274.449 466.67 276.515L457.044 266.671Z" fill="#B78876"/>
<path d="M457.311 265.734C456.836 264.693 426.562 290.516 420.537 291.395L402.887 269.194C402.887 269.194 399.226 263.574 391.361 253.96C386.276 247.757 372.267 249.048 368.606 256.607C362.353 269.452 362.274 283.73 358.94 311.513L357.486 330.302C357.172 334.3 357.235 338.318 357.674 342.306C358.208 346.96 359.296 351.863 361.532 351.165L401.907 318.929L403.203 304.288C411.692 312.602 414.334 314.342 418.746 313.673C429.856 312.01 468.748 278.225 468.748 278.225C468.748 278.225 457.776 266.786 457.311 265.734Z" fill="#EE4248"/>
<path d="M463.534 282.918C462.746 282.46 462.018 281.911 461.367 281.284C459.712 279.857 458.162 278.321 456.727 276.687C455.283 275.059 453.96 273.335 452.77 271.526C452.24 270.797 451.792 270.015 451.434 269.194C452.033 269.863 452.579 270.576 453.066 271.325C454.056 272.654 455.441 274.469 457.113 276.362C458.785 278.254 460.407 279.879 461.614 281.026C462.299 281.612 462.941 282.244 463.534 282.918Z" fill="#263238"/>
<path d="M418.825 300.197C418.841 298.701 419.027 297.21 419.379 295.753C419.573 294.268 419.931 292.807 420.448 291.395C420.432 292.892 420.246 294.382 419.894 295.839C419.701 297.325 419.343 298.786 418.825 300.197Z" fill="#263238"/>
<path d="M422.684 299.28C422.072 298.064 421.62 296.78 421.338 295.457C420.901 294.177 420.619 292.852 420.497 291.51C421.109 292.725 421.56 294.009 421.843 295.333C422.278 296.613 422.56 297.937 422.684 299.28Z" fill="#263238"/>
<path d="M378.974 273.093C379.337 273.479 379.667 273.891 379.964 274.326L382.595 277.786C384.821 280.701 387.928 284.715 391.401 289.101L400.354 300.321L403.055 303.733C403.42 304.137 403.751 304.568 404.044 305.023C403.647 304.66 403.28 304.267 402.946 303.848C402.264 303.074 401.304 301.937 400.117 300.541C397.752 297.722 394.517 293.803 391.044 289.407C387.572 285.011 384.505 280.959 382.358 277.987C381.28 276.505 380.379 275.291 379.845 274.441C379.518 274.015 379.227 273.564 378.974 273.093Z" fill="#263238"/>
<path d="M373.81 291.978C372.764 291.405 371.807 290.691 370.971 289.856C370.02 289.138 369.177 288.295 368.468 287.352C369.52 287.925 370.48 288.643 371.317 289.484C372.27 290.192 373.11 291.033 373.81 291.978Z" fill="#263238"/>
<path d="M370.347 302.749C369.315 304.814 367.983 306.725 366.39 308.426C366.825 307.353 367.422 306.348 368.161 305.444C368.753 304.449 369.489 303.542 370.347 302.749Z" fill="#263238"/>
<path d="M375.215 317.61C375.106 317.696 374.226 316.836 373.236 315.699C372.569 315.05 372.027 314.293 371.633 313.462C371.742 313.376 372.623 314.236 373.612 315.374C374.28 316.021 374.823 316.778 375.215 317.61Z" fill="#263238"/>
<path d="M365.796 327.138C365.172 327.845 364.421 328.437 363.58 328.887C362.834 329.472 361.986 329.925 361.077 330.225C361.701 329.519 362.452 328.926 363.293 328.476C364.04 327.892 364.887 327.439 365.796 327.138Z" fill="#263238"/>
<path d="M378.964 329.662C377.916 329.22 377.008 328.518 376.333 327.626C375.53 326.828 374.96 325.839 374.681 324.759C374.819 324.692 375.541 325.953 376.719 327.282C377.896 328.61 379.054 329.537 378.964 329.662Z" fill="#263238"/>
<path d="M391.242 320.659C390.519 321.573 389.667 322.383 388.71 323.067C387.858 323.871 386.892 324.553 385.84 325.093C386.563 324.179 387.416 323.368 388.373 322.685C389.223 321.879 390.189 321.196 391.242 320.659Z" fill="#263238"/>
<path d="M365.974 338.043C364.284 337.294 362.941 335.966 362.205 334.316C362.324 334.239 363.066 335.157 364.105 336.17C365.143 337.183 366.063 337.948 365.974 338.043Z" fill="#263238"/>
<path d="M393.429 312.143C391.729 313.083 389.769 313.491 387.819 313.309C389.668 312.832 391.54 312.443 393.429 312.143Z" fill="#263238"/>
<path d="M384.287 302.099C384.082 303.264 383.751 304.404 383.298 305.501C382.975 306.605 382.589 307.689 382.14 308.751H382.031C382.031 308.693 382.091 308.674 382.111 308.674C382.13 308.674 382.111 308.674 382.111 308.779H382.002C382.118 307.632 382.377 306.503 382.773 305.415C383.075 304.234 383.588 303.111 384.287 302.099Z" fill="#263238"/>
<path d="M388.155 295.724C387.082 295.291 386.081 294.705 385.187 293.985C384.206 293.4 383.322 292.675 382.566 291.835C383.619 292.277 384.602 292.863 385.484 293.574C386.481 294.158 387.382 294.882 388.155 295.724Z" fill="#263238"/>
<path d="M380.241 281.676C379.942 282.624 379.443 283.502 378.776 284.256C378.241 285.101 377.534 285.832 376.699 286.406C377.142 285.525 377.701 284.703 378.361 283.96C378.878 283.12 379.51 282.351 380.241 281.676Z" fill="#263238"/>
<path d="M368.191 279.764C368.025 278.69 368.025 277.598 368.191 276.524C368.203 275.44 368.383 274.365 368.725 273.332C368.903 274.402 368.903 275.493 368.725 276.562C368.722 277.65 368.542 278.731 368.191 279.764Z" fill="#263238"/>
<path d="M363.491 300.828C363.223 299.684 363.116 298.511 363.175 297.34C363.074 296.174 363.141 295 363.372 293.851C363.755 296.159 363.795 298.509 363.491 300.828Z" fill="#263238"/>
<path d="M362.838 321.032C362.389 320.412 362.088 319.703 361.958 318.958C361.665 318.257 361.53 317.505 361.562 316.75C362.317 318.066 362.753 319.53 362.838 321.032Z" fill="#263238"/>
<path d="M379.499 264.005C378.713 264.875 377.86 265.687 376.946 266.432C376.155 267.299 375.291 268.101 374.364 268.831C374.902 267.775 375.66 266.838 376.59 266.078C377.398 265.198 378.389 264.491 379.499 264.005Z" fill="#263238"/>
<path d="M372.425 261.72C372.211 260.679 372.171 259.611 372.306 258.557C372.266 257.495 372.4 256.434 372.702 255.413C372.91 256.455 372.95 257.522 372.821 258.576C372.855 259.638 372.721 260.698 372.425 261.72Z" fill="#263238"/>
<path d="M389.758 259.446C387.899 258.36 386.102 257.176 384.376 255.9C386.458 256.611 388.313 257.833 389.758 259.446Z" fill="#263238"/>
<path d="M385.989 271.373C385.715 270.279 385.605 269.152 385.662 268.028C385.556 266.907 385.619 265.777 385.85 264.674C386.238 266.885 386.285 269.139 385.989 271.363V271.373Z" fill="#263238"/>
<path d="M396.14 278.35C394.143 277.966 392.163 277.507 390.203 276.973C392.28 276.852 394.347 277.331 396.14 278.35Z" fill="#263238"/>
<path d="M396.832 271.239C396.483 269.378 396.483 267.471 396.832 265.61C397.092 266.524 397.189 267.474 397.119 268.42C397.197 269.369 397.1 270.323 396.832 271.239Z" fill="#263238"/>
<path d="M404.569 283.176C404.254 282.02 404.11 280.826 404.143 279.63C404.007 278.443 404.041 277.244 404.242 276.066C404.687 278.41 404.797 280.803 404.569 283.176Z" fill="#263238"/>
<path d="M398.623 287.209C398.514 287.305 397.713 286.597 396.832 285.642C395.952 284.686 395.318 283.826 395.427 283.73C395.536 283.635 396.337 284.342 397.218 285.307C398.098 286.272 398.732 287.123 398.623 287.209Z" fill="#263238"/>
<path d="M406.142 292.714C405.208 293.021 404.229 293.176 403.243 293.173C402.261 293.338 401.257 293.338 400.275 293.173C401.202 292.855 402.18 292.7 403.164 292.714C404.148 292.536 405.158 292.536 406.142 292.714Z" fill="#263238"/>
<path d="M411.801 295.505C411.382 293.43 411.299 291.306 411.554 289.207C411.985 291.28 412.068 293.406 411.801 295.505Z" fill="#263238"/>
<path d="M417.381 305.97C416.194 306.189 414.976 306.189 413.789 305.97C412.583 305.924 411.398 305.655 410.297 305.176C411.488 305.172 412.677 305.274 413.849 305.482C415.04 305.531 416.223 305.695 417.381 305.97Z" fill="#263238"/>
<path d="M426.977 301.143C426.569 303.314 425.822 305.411 424.761 307.365C424.877 306.271 425.168 305.201 425.622 304.192C425.905 303.113 426.362 302.084 426.977 301.143Z" fill="#263238"/>
<path d="M433.893 292.695C431.836 292.487 429.829 291.947 427.957 291.099C430.011 291.319 432.016 291.858 433.893 292.695Z" fill="#263238"/>
<path d="M439.453 295.896C438.864 296.728 438.139 297.46 437.306 298.066C436.582 298.791 435.744 299.4 434.823 299.872C435.406 299.034 436.132 298.297 436.97 297.693C437.693 296.971 438.532 296.364 439.453 295.896Z" fill="#263238"/>
<path d="M441.679 287.993C441.132 287.048 440.795 286.003 440.69 284.925C440.406 283.87 440.359 282.769 440.551 281.695C440.866 282.721 441.082 283.774 441.194 284.839C441.458 285.873 441.62 286.929 441.679 287.993Z" fill="#263238"/>
<path d="M452.265 286.177C450.23 288.139 448.172 290.08 446.092 291.997C447.663 289.628 449.775 287.637 452.265 286.177Z" fill="#263238"/>
<path d="M453.314 282.517C452.178 282.362 451.074 282.039 450.039 281.561C448.941 281.249 447.9 280.775 446.952 280.156C448.084 280.315 449.185 280.637 450.217 281.112C451.316 281.429 452.359 281.903 453.314 282.517Z" fill="#263238"/>
<path d="M452.305 278.589C451.801 277.795 451.45 276.921 451.266 276.008C450.92 275.138 450.735 274.216 450.722 273.284C451.208 274.081 451.543 274.955 451.711 275.865C452.068 276.733 452.269 277.655 452.305 278.589Z" fill="#263238"/>
<path d="M396.921 306.123C396.802 306.209 395.932 305.262 395.061 304.02C394.434 303.314 393.945 302.505 393.617 301.631C394.361 302.219 394.991 302.931 395.477 303.733C396.095 304.445 396.583 305.253 396.921 306.123Z" fill="#263238"/>
<path d="M472.349 354.271C472.307 354.137 472.28 353.999 472.27 353.86C472.23 353.573 472.171 353.172 472.092 352.656C471.953 351.576 471.735 350.018 471.468 348.03C470.904 344.016 470.103 338.196 468.906 331.038C467.709 323.88 466.116 315.383 463.85 306.056C463.618 304.885 463.222 303.75 462.673 302.682C462.051 301.628 461.248 300.685 460.298 299.891C458.283 298.28 455.707 297.473 453.096 297.636C451.764 297.707 450.463 298.049 449.277 298.639C448.086 299.288 446.951 300.03 445.884 300.857L439.077 305.74C429.916 312.382 421.338 318.891 413.681 324.998C406.023 331.105 399.345 336.82 393.755 341.665C390.926 344.016 387.908 345.899 384.851 346.205C383.449 346.359 382.029 346.192 380.706 345.717C379.605 345.317 378.569 344.766 377.629 344.083C376.342 343.138 375.15 342.079 374.067 340.92L373.226 340.021C373.124 339.922 373.031 339.813 372.949 339.697C373.063 339.78 373.166 339.876 373.256 339.983L374.136 340.853C375.25 341.974 376.458 343.003 377.748 343.93C378.683 344.582 379.704 345.109 380.785 345.498C382.078 345.941 383.46 346.089 384.821 345.928C387.789 345.612 390.757 343.749 393.528 341.398C399.078 336.533 405.736 330.751 413.394 324.644C421.051 318.537 429.609 311.981 438.78 305.339L445.587 300.455C446.68 299.614 447.841 298.86 449.06 298.2C450.306 297.578 451.675 297.22 453.076 297.148C455.815 296.981 458.516 297.833 460.625 299.528C461.624 300.358 462.465 301.351 463.108 302.462C463.675 303.567 464.084 304.74 464.325 305.95C466.571 315.307 468.114 323.822 469.272 330.98C470.429 338.139 471.171 343.978 471.676 348.002C471.903 349.999 472.082 351.557 472.21 352.646C472.21 353.162 472.299 353.602 472.329 353.86C472.349 353.996 472.355 354.134 472.349 354.271Z" fill="#263238"/>
<path d="M483.904 353.736C483.584 353.831 483.251 353.883 482.915 353.889C482.272 353.956 481.342 354.032 480.194 354.109C477.889 354.261 474.713 354.424 471.201 354.567L462.208 354.94L459.477 355.036C459.149 355.073 458.817 355.073 458.488 355.036C458.808 354.934 459.141 354.876 459.477 354.864C460.12 354.787 461.05 354.701 462.198 354.606C464.503 354.424 467.679 354.242 471.191 354.089L480.194 353.774L482.925 353.717C483.251 353.684 483.58 353.69 483.904 353.736Z" fill="#263238"/>
<path d="M458.547 306.964C456.295 310.506 453.359 313.598 449.9 316.071C449.802 315.957 451.879 314.093 454.293 311.58C456.707 309.066 458.399 306.877 458.547 306.964Z" fill="#263238"/>
<path d="M459.507 309.869C458.173 310.852 456.764 311.737 455.292 312.516C453.909 313.444 452.453 314.269 450.939 314.982C452.163 313.859 453.534 312.896 455.015 312.115C456.406 311.182 457.916 310.427 459.507 309.869Z" fill="#263238"/>
<path d="M542.859 356.202C542.659 356.223 542.456 356.223 542.256 356.202L540.515 356.106L534.183 355.523L513.317 353.42C505.165 352.599 497.805 351.681 492.452 351.423C489.781 351.289 487.604 351.299 486.111 351.356L484.389 351.423C484.185 351.448 483.979 351.448 483.776 351.423C483.974 351.376 484.176 351.344 484.379 351.327C484.765 351.27 485.368 351.222 486.101 351.155C488.221 351.021 490.348 350.992 492.472 351.069C497.854 351.241 505.225 352.102 513.367 352.923L534.232 355.15L540.554 355.886L542.266 356.106C542.467 356.115 542.666 356.147 542.859 356.202Z" fill="#455A64"/>
<path d="M541.603 366.886C541.464 366.886 541.91 362.108 542.592 356.173C543.275 350.238 543.967 345.507 544.106 345.526C544.244 345.545 543.799 350.305 543.117 356.23C542.434 362.156 541.741 366.896 541.603 366.886Z" fill="#455A64"/>
</svg>
